<?xml version='1.0' encoding='iso-8859-1'?>
<!DOCTYPE svg PUBLIC '-//W3C//DTD SVG 1.1//EN' 'http://www.w3.org/Graphics/SVG/1.1/DTD/svg11.dtd'>
<svg version="1.1" xmlns="http://www.w3.org/2000/svg" viewBox="0 0 435.937 435.937" xmlns:xlink="http://www.w3.org/1999/xlink" enable-background="new 0 0 435.937 435.937">
  <g>
    <path d="m307.68,36.154c-25.573-24.612-59.249-37.425-94.787-36.054-66.718,2.555-121.267,56.8-124.186,123.493-1.142,26.071 5.44,51.507 19.033,73.558 22.833,37.04 34.901,78.222 34.901,119.095v0.11 44.254c0,41.535 33.791,75.326 75.326,75.326 41.534,0 75.325-33.791 75.325-75.326v-44.254-0.104c0-42.649 11.526-82.977 33.334-116.621 13.561-20.921 20.729-45.21 20.729-70.242 0.001-35.499-14.089-68.611-39.675-93.235zm-34.387,312.925l-110.651-15.823v-6.9h110.651v22.723zm-109.759,21.362c-0.575-3.193-0.892-6.474-0.892-9.83v-7.151l109.984,15.728c-0.927,5.931-2.81,11.545-5.468,16.698l-103.624-15.445zm8.901,21.547l79.924,11.913c-9.451,7.524-21.4,12.036-34.391,12.036-18.862,0-35.541-9.495-45.533-23.949zm137.409-203.235c-22.21,34.267-34.694,74.738-36.359,117.603h-111.057c-1.786-41.293-14.715-82.475-37.662-119.7-11.483-18.629-17.043-40.133-16.078-62.189 2.467-56.372 48.576-102.222 104.971-104.382 30.068-1.15 58.534,9.672 80.153,30.479 21.631,20.818 33.544,48.813 33.544,78.826 0,21.162-6.056,41.689-17.512,59.363z"/>
    <path d="m249.972,116.906c0,5.523 4.478,10 10,10s10-4.477 10-10c0-25.255-18.098-46.353-42.004-51.03v-10.067c0-5.523-4.478-10-10-10s-10,4.477-10,10v10.067c-23.906,4.677-42.005,25.775-42.005,51.03 0,25.254 18.099,46.353 42.005,51.029v63.375c-12.764-4.21-22.005-16.24-22.005-30.396 0-5.523-4.478-10-10-10s-10,4.477-10,10c0,25.255 18.099,46.353 42.005,51.029v10.068c0,5.523 4.478,10 10,10s10-4.477 10-10v-10.068c23.906-4.677 42.004-25.775 42.004-51.029s-18.098-46.353-42.004-51.03v-63.374c12.763,4.21 22.004,16.24 22.004,30.396zm-64.009,0c0-14.156 9.241-26.186 22.005-30.396v60.792c-12.763-4.211-22.005-16.241-22.005-30.396zm64.009,84.008c0,14.155-9.241,26.186-22.004,30.395v-60.791c12.763,4.21 22.004,16.241 22.004,30.396z"/>
  </g>
</svg>
